<svg xmlns="http://www.w3.org/2000/svg" viewBox="0 0 800 480" role="img">
  <defs>
    <radialGradient id="sheen" cx="42%" cy="35%" r="75%">
      <stop offset="0%" stop-color="#ffffff" stop-opacity="0.14"/>
      <stop offset="100%" stop-color="#000000" stop-opacity="0.12"/>
    </radialGradient>
  </defs>
  <rect width="800" height="480" fill="#b9b5ad"/>
  <rect width="800" height="480" fill="url(#sheen)"/>
  <g stroke="#a29e96" stroke-width="2" opacity="0.7">
    <line x1="0" y1="120" x2="800" y2="120"/>
    <line x1="0" y1="250" x2="800" y2="250"/>
    <line x1="0" y1="380" x2="800" y2="380"/>
  </g>
  <g>
    <rect x="320" y="0" width="56" height="480" fill="#63666a"/>
    <rect x="320" y="0" width="6" height="480" fill="#75787c"/>
    <rect x="369" y="0" width="7" height="480" fill="#4c4f53"/>
    <rect x="376" y="0" width="10" height="480" fill="#00000018"/>
  </g>
    
  <rect x="410" y="130" width="310" height="220" rx="8" fill="#10233d"/>
  <rect x="410" y="130" width="310" height="220" rx="8" fill="none" stroke="#0a1626" stroke-width="3"/>
  
  <text x="426" y="164" font-size="19" fill="#9fc3e8" font-family="monospace"></text><text x="426" y="194" font-size="19" fill="#9fc3e8" font-family="monospace"></text><text x="426" y="224" font-size="19" fill="#9fc3e8" font-family="monospace"></text>
    <text x="430" y="168" font-size="20" fill="#e8eef5" font-family="sans-serif">Equipo</text>
    <g font-family="sans-serif" font-size="16" fill="#9fc3e8">
      <circle cx="438" cy="204" r="7" fill="#4ea87a"/><text x="456" y="210">Quito · 09:15 · disponible</text>
      <circle cx="438" cy="240" r="7" fill="#e0a53b"/><text x="456" y="246">Madrid · 16:15 · reunión</text>
      <circle cx="438" cy="276" r="7" fill="#4ea87a"/><text x="456" y="282">Cuenca · 09:15 · disponible</text>
    </g>
</svg>
