<svg xmlns="http://www.w3.org/2000/svg" viewBox="0 0 800 480" role="img">
  <defs>
    <radialGradient id="sheen" cx="42%" cy="35%" r="75%">
      <stop offset="0%" stop-color="#ffffff" stop-opacity="0.14"/>
      <stop offset="100%" stop-color="#000000" stop-opacity="0.12"/>
    </radialGradient>
  </defs>
  <rect width="800" height="480" fill="#b9b5ad"/>
  <rect width="800" height="480" fill="url(#sheen)"/>
  <g stroke="#a29e96" stroke-width="2" opacity="0.7">
    <line x1="0" y1="120" x2="800" y2="120"/>
    <line x1="0" y1="250" x2="800" y2="250"/>
    <line x1="0" y1="380" x2="800" y2="380"/>
  </g>
  <g>
    <rect x="320" y="0" width="56" height="480" fill="#63666a"/>
    <rect x="320" y="0" width="6" height="480" fill="#75787c"/>
    <rect x="369" y="0" width="7" height="480" fill="#4c4f53"/>
    <rect x="376" y="0" width="10" height="480" fill="#00000018"/>
  </g>
    <g opacity="0.9">
  <rect x="430" y="150" width="240" height="120" rx="8" fill="#10233d"/>
  <rect x="430" y="150" width="240" height="120" rx="8" fill="none" stroke="#0a1626" stroke-width="3"/>
  <text x="446" y="142" font-size="13" fill="#9b978d" font-family="monospace">antes</text>
  <text x="446" y="184" font-size="19" fill="#9fc3e8" font-family="monospace">ECU  09:15</text><text x="446" y="214" font-size="19" fill="#9fc3e8" font-family="monospace">ESP  16:15</text></g>
    <path d="M410 300 c-8 22 12 34 2 54" stroke="#c9622f" stroke-width="6" fill="none" stroke-linecap="round"/>
    <circle cx="404" cy="288" r="18" fill="#141317"/>
</svg>
